<svg id="Слой_1" data-name="Слой 1" xmlns="http://www.w3.org/2000/svg" xmlns:xlink="http://www.w3.org/1999/xlink" viewBox="0 0 357.17 368.5"><defs><style>.cls-1,.cls-4{fill:none;}.cls-2{fill:#fff;}.cls-3{clip-path:url(#clip-path);}.cls-4{stroke:#231f20;}.cls-5{clip-path:url(#clip-path-2);}.cls-6{fill:#231f20;}</style><clipPath id="clip-path"><rect class="cls-1" width="357.17" height="368.5"/></clipPath><clipPath id="clip-path-2"><rect class="cls-1" x="79.67" y="62.51" width="197.83" height="243.48"/></clipPath></defs><title>Безымянный-1</title><rect class="cls-2" x="0.5" y="0.5" width="356.17" height="367.5"/><g class="cls-3"><rect class="cls-4" x="0.5" y="0.5" width="356.17" height="367.5"/></g><g class="cls-5"><path class="cls-6" d="M129.43,75.19h89.38v38.94a6.38,6.38,0,0,0,6.42,6.34h39.43v145.1H129.43Zm102.22,9,23.93,23.63H231.65ZM86.09,306H234.16a6.38,6.38,0,0,0,6.42-6.34v-21.4h30.5a6.38,6.38,0,0,0,6.42-6.34V114.13c0-.07,0-.14,0-.21a1.55,1.55,0,0,1,0-.22,7.28,7.28,0,0,0-.1-.8h0a5,5,0,0,0-.22-.78,1.18,1.18,0,0,0-.07-.2,5.64,5.64,0,0,0-.31-.71l0,0a6.2,6.2,0,0,0-.44-.69,1.09,1.09,0,0,0-.13-.17,5.62,5.62,0,0,0-.55-.64L229.77,64.37a6.75,6.75,0,0,0-.65-.55l-.17-.13a6.46,6.46,0,0,0-.71-.44h0a6.88,6.88,0,0,0-.74-.32l-.18-.07a7,7,0,0,0-1.64-.32H123a6.38,6.38,0,0,0-6.42,6.34v21.4H86.09a6.38,6.38,0,0,0-6.42,6.34V299.65A6.38,6.38,0,0,0,86.09,306"/><path class="cls-2" d="M264.66,120.47H225.23a6.38,6.38,0,0,1-6.42-6.34V75.19H129.43V265.57H264.66Z"/></g></svg>