<svg id="Слой_1" data-name="Слой 1" xmlns="http://www.w3.org/2000/svg" xmlns:xlink="http://www.w3.org/1999/xlink" viewBox="0 0 357.17 368.5"><defs><style>.cls-1,.cls-4{fill:none;}.cls-2{fill:#fff;}.cls-3{clip-path:url(#clip-path);}.cls-4{stroke:#231f20;}.cls-5{clip-path:url(#clip-path-2);}.cls-6{fill:#231f20;}</style><clipPath id="clip-path"><rect class="cls-1" width="357.17" height="368.5"/></clipPath><clipPath id="clip-path-2"><rect class="cls-1" x="70.23" y="87.24" width="216.7" height="194.02"/></clipPath></defs><title>k2</title><rect class="cls-2" x="0.5" y="0.5" width="356.17" height="367.5"/><g class="cls-3"><rect class="cls-4" x="0.5" y="0.5" width="356.17" height="367.5"/></g><g class="cls-5"><path class="cls-6" d="M80.57,145.54h74V248.93h-74Zm0-47.62h9.1v14h-9.1Zm14.27,0h11.69v14H94.84Zm16.86,0h11.69v14H111.7Zm16.86,0h11.69v14H128.56Zm16.85,0h9.11v14h-9.11Zm-70,183.34h84.29a5.25,5.25,0,0,0,5.16-5.33V140.08c0-.06,0-.12,0-.18a5.51,5.51,0,0,0-.06-.57s0-.08,0-.12a5.2,5.2,0,0,0-.17-.68l0-.1c-.07-.19-.15-.38-.23-.57l-.06-.11a5.82,5.82,0,0,0-.34-.6l-.07-.09a4.66,4.66,0,0,0-.39-.49l-.05-.06L150.5,122.59h9.19a5.25,5.25,0,0,0,5.16-5.33V92.58a5.25,5.25,0,0,0-5.16-5.34H75.4a5.26,5.26,0,0,0-5.17,5.34v24.68a5.26,5.26,0,0,0,5.17,5.33h9.18L71.67,136.51l0,.06a4.66,4.66,0,0,0-.39.49l-.07.09a5.88,5.88,0,0,0-.35.6l0,.11c-.09.19-.16.38-.23.57a1,1,0,0,1,0,.1,5.17,5.17,0,0,0-.16.68.5.5,0,0,0,0,.12,5.51,5.51,0,0,0-.06.57,1.09,1.09,0,0,0,0,.18s0,.08,0,.12V275.93a5.26,5.26,0,0,0,5.17,5.33"/></g><rect class="cls-2" x="145.41" y="97.92" width="9.11" height="14"/><polygon class="cls-2" points="140.25 111.92 140.25 97.92 128.56 97.92 128.56 111.92 138.39 111.92 140.25 111.92"/><polygon class="cls-2" points="106.53 111.92 106.53 97.92 94.84 97.92 94.84 111.92 96.7 111.92 106.53 111.92"/><rect class="cls-2" x="111.7" y="97.92" width="11.69" height="14"/><rect class="cls-2" x="80.57" y="97.92" width="9.11" height="14"/><rect class="cls-2" x="80.57" y="145.54" width="73.95" height="103.39"/><g class="cls-5"><path class="cls-6" d="M202.64,145.54h74V248.93h-74Zm0-47.62h9.11v14h-9.11Zm14.28,0h11.69v14H216.92Zm16.86,0h11.69v14H233.78Zm16.85,0h11.7v14h-11.7Zm16.86,0h9.11v14h-9.11Zm-70,183.34h84.29a5.25,5.25,0,0,0,5.16-5.33V140.08c0-.06,0-.12,0-.18a5.51,5.51,0,0,0-.06-.57s0-.08,0-.12a5.2,5.2,0,0,0-.17-.68l0-.1q-.11-.28-.24-.57a.54.54,0,0,0,0-.11,4.48,4.48,0,0,0-.35-.6l-.07-.09a4.57,4.57,0,0,0-.38-.49l-.05-.06-12.92-13.92h9.19a5.25,5.25,0,0,0,5.16-5.33V92.58a5.25,5.25,0,0,0-5.16-5.34H197.48a5.25,5.25,0,0,0-5.17,5.34v24.68a5.25,5.25,0,0,0,5.17,5.33h9.18l-12.91,13.92-.05.06a4.66,4.66,0,0,0-.39.49l-.07.09a5.88,5.88,0,0,0-.35.6l0,.11a4.53,4.53,0,0,0-.23.57,1,1,0,0,1,0,.1c-.07.22-.12.45-.17.68,0,0,0,.08,0,.12a5.51,5.51,0,0,0-.06.57,1.09,1.09,0,0,0,0,.18s0,.08,0,.12V275.93a5.25,5.25,0,0,0,5.17,5.33"/></g><polygon class="cls-2" points="262.32 111.92 262.32 97.92 250.63 97.92 250.63 111.92 260.47 111.92 262.32 111.92"/><polygon class="cls-2" points="228.61 111.92 228.61 97.92 216.92 97.92 216.92 111.92 218.78 111.92 228.61 111.92"/><rect class="cls-2" x="233.78" y="97.92" width="11.69" height="14"/><rect class="cls-2" x="202.65" y="97.92" width="9.11" height="14"/><rect class="cls-2" x="202.64" y="145.54" width="73.95" height="103.39"/><rect class="cls-2" x="267.49" y="97.92" width="9.11" height="14"/></svg>