<svg id="Слой_1" data-name="Слой 1" xmlns="http://www.w3.org/2000/svg" xmlns:xlink="http://www.w3.org/1999/xlink" viewBox="0 0 251.2 207.04"><defs><style>.cls-1,.cls-4{fill:none;}.cls-2{fill:#fff;}.cls-3{clip-path:url(#clip-path);}.cls-4{stroke:#231f20;stroke-linecap:round;stroke-linejoin:round;stroke-width:8px;}</style><clipPath id="clip-path" transform="translate(-52.98 -80.73)"><rect class="cls-1" x="52.98" y="80.73" width="251.2" height="207.04"/></clipPath></defs><title>k3</title><polygon class="cls-2" points="209.34 31.18 209.34 17.18 197.65 17.18 197.65 31.18 207.49 31.18 209.34 31.18"/><polygon class="cls-2" points="175.63 31.18 175.63 17.18 163.94 17.18 163.94 31.18 165.8 31.18 175.63 31.18"/><rect class="cls-2" x="180.8" y="17.18" width="11.69" height="14"/><rect class="cls-2" x="149.66" y="17.18" width="9.11" height="14"/><rect class="cls-2" x="149.66" y="64.81" width="73.95" height="103.39"/><rect class="cls-2" x="214.51" y="17.18" width="9.11" height="14"/><g class="cls-3"><path class="cls-4" d="M113.45,283.77H243.71m49-75.51H64.47v-116H292.7Zm7.48,7.49H57v-131h243.2Z" transform="translate(-52.98 -80.73)"/></g></svg>