<svg id="Слой_1" data-name="Слой 1" xmlns="http://www.w3.org/2000/svg" xmlns:xlink="http://www.w3.org/1999/xlink" viewBox="0 0 221.69 267.07"><defs><style>.cls-1{fill:none;}.cls-2{fill:#fff;}.cls-3{clip-path:url(#clip-path);}.cls-4{fill:#231f20;}.cls-5{clip-path:url(#clip-path-2);}</style><clipPath id="clip-path" transform="translate(-63.34 -55.25)"><rect class="cls-1" x="63.34" y="55.25" width="189.13" height="243.48"/></clipPath><clipPath id="clip-path-2" transform="translate(-63.34 -55.25)"><rect class="cls-1" x="166.54" y="234.23" width="118.49" height="88.09"/></clipPath></defs><title>k4</title><polygon class="cls-2" points="205.99 49.41 205.99 35.4 194.3 35.4 194.3 49.41 204.13 49.41 205.99 49.41"/><rect class="cls-2" x="177.44" y="35.4" width="11.69" height="14"/><rect class="cls-2" x="211.15" y="35.4" width="9.11" height="14"/><g class="cls-3"><path class="cls-4" d="M74.22,66.13H241.58V287.84H74.22Zm-5.44,232.6H247a5.45,5.45,0,0,0,5.45-5.44V60.69A5.44,5.44,0,0,0,247,55.25H68.78a5.43,5.43,0,0,0-5.44,5.44v232.6a5.44,5.44,0,0,0,5.44,5.44" transform="translate(-63.34 -55.25)"/><path class="cls-2" d="M230.7,271.52a5.45,5.45,0,0,1-5.45,5.44H90.55a5.44,5.44,0,0,1-5.44-5.44V82.46A5.43,5.43,0,0,1,90.55,77h134.7a5.44,5.44,0,0,1,5.45,5.44ZM241.58,66.13H74.22V287.84H241.58Z" transform="translate(-63.34 -55.25)"/><path class="cls-4" d="M225.25,77H90.55a5.43,5.43,0,0,0-5.44,5.44V271.52A5.44,5.44,0,0,0,90.55,277h134.7a5.44,5.44,0,0,0,5.44-5.44V82.46A5.43,5.43,0,0,0,225.25,77" transform="translate(-63.34 -55.25)"/></g><g class="cls-5"><path class="cls-4" d="M172.86,293.83H278.7v22.44H172.86Zm0-16.26H278.7v10.21H172.86Zm0-15.89H278.7v9.84H172.86Zm-3.16,60.64H281.86a3.1,3.1,0,0,0,3.17-3V258.65a3.1,3.1,0,0,0-3.17-3h-3v-21.4H172.66v21.4h-3a3.09,3.09,0,0,0-3.16,3v60.64a3.09,3.09,0,0,0,3.16,3" transform="translate(-63.34 -55.25)"/></g><rect class="cls-2" x="109.52" y="206.43" width="105.84" height="9.84"/><rect class="cls-2" x="109.52" y="238.59" width="105.84" height="22.43"/><rect class="cls-2" x="109.52" y="222.32" width="105.84" height="10.21"/></svg>