<svg id="Слой_1" data-name="Слой 1" xmlns="http://www.w3.org/2000/svg" xmlns:xlink="http://www.w3.org/1999/xlink" viewBox="0 0 269.68 168.89"><defs><style>.cls-1,.cls-4{fill:none;}.cls-2{clip-path:url(#clip-path);}.cls-3{fill:#fff;}.cls-4{stroke:#231f20;stroke-linecap:round;stroke-linejoin:round;stroke-width:10px;}</style><clipPath id="clip-path" transform="translate(-43.74 -99.81)"><rect class="cls-1" x="43.74" y="99.81" width="269.68" height="168.89"/></clipPath></defs><title>k5</title><g class="cls-2"><path class="cls-3" d="M180.94,129.17l116-16.31,10.81,76.93A64.87,64.87,0,1,1,179.3,207.85l-.89-6.35" transform="translate(-43.74 -99.81)"/><path class="cls-4" d="M180.94,129.17l116-16.31,10.81,76.93A64.87,64.87,0,1,1,179.3,207.85l-.89-6.35" transform="translate(-43.74 -99.81)"/><path class="cls-3" d="M216.25,171.94a10.13,10.13,0,1,1-11.44-8.63,10.12,10.12,0,0,1,11.44,8.63" transform="translate(-43.74 -99.81)"/><path class="cls-4" d="M216.25,171.94a10.13,10.13,0,1,1-11.44-8.63A10.12,10.12,0,0,1,216.25,171.94Z" transform="translate(-43.74 -99.81)"/><path class="cls-3" d="M282.44,162.63A10.14,10.14,0,1,1,271,154a10.13,10.13,0,0,1,11.45,8.62" transform="translate(-43.74 -99.81)"/><path class="cls-4" d="M282.44,162.63A10.14,10.14,0,1,1,271,154,10.13,10.13,0,0,1,282.44,162.63Z" transform="translate(-43.74 -99.81)"/><path class="cls-3" d="M223.35,232.23a24.65,24.65,0,0,1,48.82-6.86" transform="translate(-43.74 -99.81)"/><path class="cls-4" d="M223.35,232.23a24.65,24.65,0,0,1,48.82-6.86" transform="translate(-43.74 -99.81)"/><path class="cls-3" d="M177.08,207.77a64.87,64.87,0,0,1-126.91-27l16.16-76,126.9,27Z" transform="translate(-43.74 -99.81)"/><path class="cls-4" d="M177.08,207.77a64.87,64.87,0,0,1-126.91-27l16.16-76,126.9,27Z" transform="translate(-43.74 -99.81)"/><path class="cls-3" d="M97.18,159.69a10.14,10.14,0,1,1-7.81-12,10.15,10.15,0,0,1,7.81,12" transform="translate(-43.74 -99.81)"/><path class="cls-4" d="M97.18,159.69a10.14,10.14,0,1,1-7.81-12A10.15,10.15,0,0,1,97.18,159.69Z" transform="translate(-43.74 -99.81)"/><path class="cls-3" d="M162.55,173.58a10.14,10.14,0,1,1-7.8-12,10.13,10.13,0,0,1,7.8,12" transform="translate(-43.74 -99.81)"/><path class="cls-4" d="M162.55,173.58a10.14,10.14,0,1,1-7.8-12A10.13,10.13,0,0,1,162.55,173.58Z" transform="translate(-43.74 -99.81)"/><path class="cls-3" d="M135.28,210.94a24.64,24.64,0,0,1-48.21-10.25" transform="translate(-43.74 -99.81)"/><path class="cls-4" d="M135.28,210.94a24.64,24.64,0,0,1-48.21-10.25" transform="translate(-43.74 -99.81)"/></g></svg>