<svg id="Слой_1" data-name="Слой 1" xmlns="http://www.w3.org/2000/svg" xmlns:xlink="http://www.w3.org/1999/xlink" viewBox="0 0 314.45 268.32"><defs><style>.cls-1,.cls-3,.cls-5{fill:none;}.cls-2{clip-path:url(#clip-path);}.cls-3,.cls-5{stroke:#231f20;stroke-linecap:round;stroke-linejoin:round;}.cls-3{stroke-width:10px;}.cls-4{clip-path:url(#clip-path-2);}.cls-5{stroke-width:8px;}</style><clipPath id="clip-path" transform="translate(-17.79 -27.2)"><rect class="cls-1" x="17.79" y="27.2" width="187.54" height="234.68"/></clipPath><clipPath id="clip-path-2" transform="translate(-17.79 -27.2)"><rect class="cls-1" x="101.45" y="167.67" width="230.45" height="127.53"/></clipPath></defs><title>k6</title><g class="cls-2"><path class="cls-3" d="M55.19,237.72H179.67m-124.48-21H179.67m-124.48-21H179.67M65.23,119.12,73.68,86.9m22.45,14,8.44-32.22m22.45,14,8.45-32.22m22.45,14,8.45-32.23m-132,105.15,8.45-32.22m135.13-52.5L34.33,137.35,22.79,116.92,166.37,32.2ZM70.21,162.52l23.08-23.59m12.6,23.59L129,138.93m12.6,23.59,23.08-23.59m12.59,23.59,23.08-23.59M34.54,162.52l23.08-23.59m142.7,23.59H34.54V138.93H200.32Zm0,94.36H34.54V138.93H200.32Z" transform="translate(-17.79 -27.2)"/></g><g class="cls-4"><path class="cls-5" d="M321.37,284.66H112V178.2H321.37Zm6.87,6.87H105.12V171.34H328.24Z" transform="translate(-17.79 -27.2)"/></g></svg>